<?xml version="1.0" standalone="no"?>
<!DOCTYPE svg PUBLIC "-//W3C//DTD SVG 20010904//EN"
 "http://www.w3.org/TR/2001/REC-SVG-20010904/DTD/svg10.dtd">
<svg version="1.0" xmlns="http://www.w3.org/2000/svg"
 width="512.000000pt" height="512.000000pt" viewBox="0 0 512.000000 512.000000"
 preserveAspectRatio="xMidYMid meet">
<metadata>
Created by potrace 1.11, written by Peter Selinger 2001-2013
</metadata>
<g transform="translate(0.000000,512.000000) scale(0.100000,-0.100000)"
fill="#000000" stroke="none">
<path d="M0 2560 l0 -2560 2560 0 2560 0 0 2560 0 2560 -2560 0 -2560 0 0
-2560z m4197 1578 c41 -25 83 -105 83 -158 -1 -65 -56 -174 -332 -655 -151
-264 -280 -490 -287 -503 l-13 -24 129 3 c79 2 150 -2 186 -10 l58 -13 -25
-31 c-51 -64 -165 -235 -226 -339 l-62 -108 -67 0 c-36 0 -110 -3 -163 -7
l-97 -6 -125 -247 c-69 -136 -126 -257 -126 -268 0 -12 10 -28 22 -36 52 -36
99 -17 269 110 l139 104 37 -56 38 -57 -105 -100 c-172 -164 -340 -292 -475
-360 -122 -61 -275 -85 -348 -53 -73 31 -116 107 -124 221 -5 65 -2 79 32 166
20 51 88 194 151 317 l114 223 -93 -5 c-50 -4 -252 -11 -447 -17 l-355 -10
-505 -504 c-515 -513 -577 -567 -674 -595 -59 -16 -140 -8 -174 17 -55 41 -39
121 51 252 126 182 339 357 558 456 59 27 80 46 217 197 84 91 152 168 152
170 0 2 -71 3 -157 3 -179 0 -216 10 -228 64 -21 96 263 399 461 493 132 62
386 104 427 69 41 -33 -18 -62 -158 -77 -80 -9 -125 -28 -125 -52 0 -30 24
-34 169 -26 l134 7 521 432 c782 647 1052 851 1286 970 131 67 201 78 257 43z"/>
<path d="M3149 3229 c-321 -265 -586 -485 -587 -490 -2 -5 13 -7 35 -4 21 2
144 12 273 20 129 8 254 18 277 21 l42 5 276 461 c151 254 274 463 271 465 -2
2 -266 -213 -587 -478z"/>
</g>
</svg>
