<svg xmlns="http://www.w3.org/2000/svg" width="1440.136" height="291.605" viewBox="0 0 1440.136 291.605">
  <g id="Group_1504" data-name="Group 1504" transform="translate(0.065 -70.663)" opacity="0.5">
    <path id="Path_5" data-name="Path 5" d="M0,186.319c99.994,60.632,207.312,120.236,318.843,155,40.9,12.751,83.393,23.777,126.061,20.124,62.9-5.386,119.134-42.173,165.168-85.609s84.68-94.309,130.977-137.46C767.2,114,797.224,91.494,832.339,85.3c62.586-11.04,122.406,32.613,161.1,83.288s65.376,110.73,110.294,155.919c11.487,11.556,26.408,22.721,42.426,19.972,21.7-3.725,30.962-29.316,36.108-50.832,11.5-48.079,23.251-97.045,48.628-139.4s67.052-77.825,115.972-82.877c31.369-3.239,66.246,7.743,93.132,24.309" fill="none" stroke="#707070" stroke-width="0.25"/>
    <path id="Path_6" data-name="Path 6" d="M0,190.346c97.1,56.292,201.141,110.381,308.79,140.769,39.439,11.151,80.294,20.588,121.256,16.541,41.9-4.139,80.824-22.164,115.678-46.556a433.888,433.888,0,0,0,43.761-35.359c44.928-41.065,82.606-89.5,128.7-127.893,17.746-14.784,37.382-27.527,58.529-35.95a133.49,133.49,0,0,1,34.335-8.888c26.158-3.036,51.8,2.836,75.671,14.4,33.091,16.047,63.017,43.062,86.826,70.9,7.636,8.915,14.932,17.983,22.074,27.007,21.195,26.851,40.427,53.3,61.968,76.927a300.257,300.257,0,0,0,32.817,31.4c11.608,9.412,26.315,18.445,42.052,14.863a32.223,32.223,0,0,0,6.958-2.435c16.719-8.156,25.154-29.6,30.849-47.937,14.613-47.063,29.933-93.322,57.483-132.219,27.412-38.705,69.709-69.631,119.366-71.952,31.087-1.453,65.508,9.974,92.89,27.084" transform="translate(0 2.787)" fill="none" stroke="#707070" stroke-width="0.25"/>
    <path id="Path_7" data-name="Path 7" d="M0,194.53c94.2,51.957,194.968,100.529,298.737,126.536,37.976,9.552,77.194,17.4,116.45,12.96,40.161-4.545,77.583-21.746,111.251-44.83A441.671,441.671,0,0,0,568.9,255.8c43.82-38.694,80.7-84.616,126.417-118.324a199.769,199.769,0,0,1,60.008-30.3,142.412,142.412,0,0,1,34.431-6.3c26.043-1.434,51.539,5.3,75.339,17.309,33.1,16.733,63.385,43.726,88.554,69.99,8.085,8.417,15.905,16.819,23.639,24.964,22.894,24.232,43.816,46.17,66.2,65.071a280.957,280.957,0,0,0,33.585,24.71c11.725,7.267,26.222,14.168,41.677,9.754a35.253,35.253,0,0,0,6.852-2.732c16.731-8.8,25.836-29.53,32.652-47.178,17.787-46.067,36.587-89.591,66.338-125.036,29.418-35.05,72.332-60.282,122.761-61.031,30.782-.455,64.771,12.209,92.648,29.86" transform="translate(0 5.415)" fill="none" stroke="#707070" stroke-width="0.25"/>
    <path id="Path_8" data-name="Path 8" d="M0,198.92c91.3,47.62,188.8,90.678,288.682,112.3,36.513,7.953,74.1,14.214,111.646,9.381,38.423-4.95,74.342-21.327,106.823-43.1a453.628,453.628,0,0,0,41.159-31.427c42.714-36.323,78.981-79.636,124.138-108.756,18.979-12.238,39.9-20,61.486-24.653a155.038,155.038,0,0,1,34.526-3.708c25.928.167,51.277,7.772,75.011,20.223,33.1,17.416,63.752,44.387,90.282,69.083,8.533,7.918,16.877,15.654,25.2,22.919,24.593,21.615,47.205,39.039,70.435,53.215a271.841,271.841,0,0,0,34.353,18.023c11.844,5.123,26.127,9.892,41.3,4.644a39.62,39.62,0,0,0,6.749-3.028c16.731-9.475,26.544-29.46,34.452-46.422,21.022-45.078,43.21-85.86,75.2-117.853,31.39-31.4,74.922-53.43,126.153-50.108,30.467,1.976,64.036,14.44,92.408,32.634" transform="translate(0 7.837)" fill="none" stroke="#707070" stroke-width="0.25"/>
    <path id="Path_9" data-name="Path 9" d="M0,203.6c88.4,43.281,182.625,80.822,278.629,98.066,35.05,6.353,71,11.025,106.84,5.8,36.684-5.353,71.1-20.907,102.4-41.376a470.625,470.625,0,0,0,39.857-29.46c41.608-33.951,77.426-74.525,121.857-99.187,19.69-10.931,41.165-16.232,62.964-19a172.5,172.5,0,0,1,34.621-1.117c25.813,1.766,51.016,10.239,74.68,23.134,33.108,18.1,64.118,45.049,92.008,68.177,8.982,7.421,17.862,14.471,26.767,20.876,26.331,18.941,50.594,31.91,74.671,41.357a275.467,275.467,0,0,0,35.119,11.338c11.963,2.978,26.02,5.581,40.925-.463a46.37,46.37,0,0,0,6.645-3.325c16.729-10.155,27.277-29.389,36.255-45.665,24.319-44.079,49.8-82.141,84.05-110.671,33.328-27.757,77.5-45.435,129.548-39.185,30.14,3.619,63.3,16.671,92.166,35.407" transform="translate(0 9.969)" fill="none" stroke="#707070" stroke-width="0.25"/>
    <path id="Path_10" data-name="Path 10" d="M0,208.65c85.505,38.945,176.454,70.971,268.575,83.831,33.587,4.754,67.9,7.837,102.035,2.22,34.946-5.758,67.859-20.49,97.97-39.652,13.323-8.473,26.185-17.837,38.555-27.492,40.5-31.58,76.024-69.251,119.578-89.62,20.46-9.567,42.426-12.467,64.443-13.356a196.525,196.525,0,0,1,34.717,1.475c25.7,3.368,50.755,12.707,74.348,26.047,33.114,18.785,64.487,45.711,93.736,67.271a322.235,322.235,0,0,0,28.33,18.829,242.883,242.883,0,0,0,78.906,29.5,295.406,295.406,0,0,0,35.887,4.65c12.081.833,25.924,1.3,40.548-5.572a54.938,54.938,0,0,0,6.541-3.623c16.723-10.837,28.032-29.307,38.058-44.907,27.675-43.06,56.348-78.445,92.9-103.488,35.234-24.138,80.081-37.513,132.945-28.262,29.814,5.217,62.563,18.9,91.924,38.181" transform="translate(0 11.734)" fill="none" stroke="#707070" stroke-width="0.25"/>
    <path id="Path_11" data-name="Path 11" d="M0,214.15c82.608,34.606,170.283,61.117,258.522,69.6,32.124,3.155,64.8,4.65,97.231-1.363,33.2-6.161,64.616-20.07,93.54-37.924,12.806-7.9,25.229-16.6,37.256-25.526,39.395-29.211,74.746-63.792,117.3-80.051,21.283-8.133,43.688-8.7,65.921-7.707a228.879,228.879,0,0,1,34.813,4.065c25.58,4.967,50.494,15.174,74.018,28.957,33.12,19.471,64.854,46.374,95.462,66.365a237.334,237.334,0,0,0,29.894,16.787C933.677,261.046,961.329,265,987.1,265a331.524,331.524,0,0,0,36.655-2.039c12.2-1.311,25.828-2.968,40.172-10.679a67.8,67.8,0,0,0,6.438-3.919c16.715-11.526,28.808-29.215,39.861-44.15,31.087-42.008,62.876-74.778,101.758-96.307,37.113-20.548,82.671-29.662,136.337-17.34,29.5,6.774,61.828,21.137,91.684,40.957" transform="translate(0 13.048)" fill="none" stroke="#707070" stroke-width="0.25"/>
    <path id="Path_12" data-name="Path 12" d="M0,220.184c79.711,30.269,164.11,51.266,248.467,55.361,30.662,1.557,61.7,1.463,92.427-4.942,31.467-6.566,61.375-19.651,89.113-36.2,12.29-7.327,24.273-15.364,35.954-23.56,38.289-26.84,73.548-58.13,115.018-70.483,22.145-6.6,44.949-4.936,67.4-2.056a272.766,272.766,0,0,1,34.907,6.653c25.465,6.568,50.235,17.643,73.69,31.872,33.124,20.154,65.22,47.034,97.189,65.457a189.423,189.423,0,0,0,31.459,14.744c31.388,11.144,60.762,10.525,87.375,5.791a381.5,381.5,0,0,0,37.421-8.726c12.319-3.456,25.734-7.242,39.8-15.786q3.246-1.973,6.336-4.216c16.7-12.219,29.6-29.107,41.662-43.392,34.547-40.915,69.387-71.151,110.613-89.126,38.978-16.994,85.284-21.882,139.732-6.417,29.19,8.292,61.091,23.37,91.442,43.732" transform="translate(0 13.826)" fill="none" stroke="#707070" stroke-width="0.25"/>
    <path id="Path_13" data-name="Path 13" d="M0,226.832c76.813,25.932,157.939,41.411,238.414,41.126,29.2-.044,58.6-1.726,87.621-8.525,29.729-6.97,58.134-19.231,84.687-34.47,11.77-6.753,23.316-14.127,34.65-21.594,37.183-24.468,72.378-52.262,112.737-60.914,23.03-4.936,46.211-1.171,68.88,3.59a332.415,332.415,0,0,1,35,9.245c25.35,8.168,49.974,20.11,73.357,34.783,33.132,20.84,65.589,47.7,98.919,64.552a162.718,162.718,0,0,0,33.02,12.7c33.089,8.525,64.153,3.4,91.611-6.065,12.929-4.426,25.469-9.686,38.187-15.414,12.438-5.6,25.659-11.489,39.423-20.9q3.171-2.151,6.23-4.514c16.689-12.914,30.4-28.982,43.463-42.634,38.045-39.769,75.894-67.561,119.47-81.944,40.836-13.478,87.93-14.172,143.126,4.506,28.9,9.779,60.353,25.6,91.2,46.5" transform="translate(0 13.992)" fill="none" stroke="#707070" stroke-width="0.25"/>
    <path id="Path_14" data-name="Path 14" d="M0,234.138c73.916,21.594,151.766,31.559,228.361,26.893,27.736-1.644,55.5-4.913,82.815-12.106,27.99-7.375,54.893-18.812,80.26-32.746,11.253-6.177,22.36-12.889,33.35-19.626,36.075-22.1,71.18-46.2,110.456-51.345,23.908-3.135,47.472,2.592,70.358,9.239,11.731,3.387,23.432,7.3,35.1,11.835a400.64,400.64,0,0,1,73.027,37.7c33.137,21.523,65.956,48.359,100.645,63.644a145.851,145.851,0,0,0,34.585,10.656c34.788,5.908,67.542-3.732,95.845-17.923,13.321-6.655,26.114-14.179,38.955-22.1,12.557-7.745,25.565-15.765,39.047-26q3.1-2.339,6.127-4.81c16.672-13.615,31.215-28.84,45.266-41.877,41.57-38.571,82.4-64.011,128.325-74.761,42.7-10,90.616-6.518,146.519,15.429,28.631,11.24,59.618,27.832,90.96,49.279" transform="translate(0 13.498)" fill="none" stroke="#707070" stroke-width="0.25"/>
    <path id="Path_15" data-name="Path 15" d="M0,242.124A609.667,609.667,0,0,0,218.306,254.78c26.275-3.241,52.4-8.1,78.012-15.686a425.309,425.309,0,0,0,75.832-31.018c10.737-5.6,21.4-11.652,32.049-17.66,34.969-19.726,69.9-39.949,108.177-41.777,24.749-1.181,48.733,6.359,71.837,14.89q17.743,6.535,35.194,14.425a506.2,506.2,0,0,1,72.7,40.606c33.141,22.211,66.323,49.023,102.371,62.74a135.34,135.34,0,0,0,36.15,8.611c36.486,3.289,70.931-10.863,100.078-29.779,13.712-8.886,26.761-18.672,39.723-28.787,12.676-9.89,25.471-20.041,38.671-31.114q3.021-2.526,6.023-5.105c16.635-14.335,32.031-28.681,47.069-41.121,45.112-37.317,88.927-60.5,137.18-67.58,44.578-6.543,93.347,1.083,149.914,26.352,28.383,12.68,58.881,30.067,90.718,52.055" transform="translate(0 12.326)" fill="none" stroke="#707070" stroke-width="0.25"/>
    <path id="Path_16" data-name="Path 16" d="M0,250.762c117.859,22.351,245.236,2.842,352.863-50.135,43.816-21.567,87.84-49.667,136.644-47.9,25.525.922,49.995,10.122,73.315,20.538A671.051,671.051,0,0,1,670.479,233.8c43.891,30.315,88.477,67.461,141.811,68.4,38.187.67,74.321-17.992,104.316-41.635s56.364-51.494,84.7-77.1C1137.69,60.24,1247.067,40.364,1440,174.807" transform="translate(0 10.5)" fill="none" stroke="#707070" stroke-width="0.25"/>
  </g>
</svg>
