<?xml version="1.0" encoding="UTF-8" standalone="no"?>
<svg
   width="148"
   height="39.098"
   viewBox="0 0 148 39.098"
   version="1.1"
   id="svg1"
   sodipodi:docname="logo.svg"
   inkscape:version="1.4 (86a8ad7, 2024-10-11)"
   xmlns:inkscape="http://www.inkscape.org/namespaces/inkscape"
   xmlns:sodipodi="http://sodipodi.sourceforge.net/DTD/sodipodi-0.dtd"
   xmlns="http://www.w3.org/2000/svg"
   xmlns:svg="http://www.w3.org/2000/svg">
  <defs
     id="defs1">
    <rect
       x="0"
       y="0"
       width="148"
       height="24.823"
       id="rect2" />
    <rect
       x="0"
       y="0"
       width="148"
       height="25.823"
       id="rect1" />
  </defs>
  <sodipodi:namedview
     id="namedview1"
     pagecolor="#505050"
     bordercolor="#eeeeee"
     borderopacity="1"
     inkscape:showpageshadow="0"
     inkscape:pageopacity="0"
     inkscape:pagecheckerboard="0"
     inkscape:deskcolor="#505050"
     inkscape:zoom="6.0743243"
     inkscape:cx="71.036708"
     inkscape:cy="18.438265"
     inkscape:window-width="2160"
     inkscape:window-height="1271"
     inkscape:window-x="2869"
     inkscape:window-y="-11"
     inkscape:window-maximized="1"
     inkscape:current-layer="Group_1594" />
  <g
     id="Group_1594"
     data-name="Group 1594"
     transform="translate(0 -13.5)">
    <path
       id="Path_250"
       d="m 15.758637,50.573894 0.22,1.1 0.269,-1.055 1.543,-5.239 h 0.542 l 1.523,5.239 0.264,1.064 0.234,-1.113 1.284,-5.19 h 0.615 l -1.821,7.113 h -0.576 l -1.611,-5.562 -0.181,-0.7 -0.176,0.7 -1.65,5.562 h -0.576 l -1.816,-7.109 h 0.615 z m 13.905,-1.25 a 4.108,4.108 0 0 1 -0.339,1.724 2.59,2.59 0 0 1 -0.969,1.145 2.654,2.654 0 0 1 -1.455,0.4 2.525,2.525 0 0 1 -2.012,-0.891 3.563,3.563 0 0 1 -0.767,-2.4 v -0.732 a 4.082,4.082 0 0 1 0.344,-1.721 2.629,2.629 0 0 1 0.975,-1.156 2.633,2.633 0 0 1 1.45,-0.4 2.657,2.657 0 0 1 1.448,0.4 2.6,2.6 0 0 1 0.969,1.118 4.024,4.024 0 0 1 0.356,1.675 z m -0.6,-0.771 a 3.142,3.142 0 0 0 -0.581,-2.012 1.927,1.927 0 0 0 -1.592,-0.728 1.924,1.924 0 0 0 -1.58,0.73 3.167,3.167 0 0 0 -0.588,2.039 v 0.742 a 3.142,3.142 0 0 0 0.586,2 1.922,1.922 0 0 0 1.592,0.74 1.907,1.907 0 0 0 1.592,-0.73 3.226,3.226 0 0 0 0.571,-2.034 z m 5.771,0.981 h -2.065 v 2.959 h -0.605 v -7.109 h 2.31 a 2.634,2.634 0 0 1 1.777,0.552 1.928,1.928 0 0 1 0.64,1.543 1.928,1.928 0 0 1 -0.4,1.206 2.047,2.047 0 0 1 -1.074,0.723 l 1.777,3.022 v 0.063 h -0.64 z m -2.065,-0.513 h 1.841 a 1.707,1.707 0 0 0 1.216,-0.43 1.456,1.456 0 0 0 0.459,-1.113 1.462,1.462 0 0 0 -0.485,-1.167 1.985,1.985 0 0 0 -1.338,-0.418 h -1.694 z m 7.361,2.964 h 3.511 v 0.508 h -4.116 v -7.109 h 0.605 z m 5.663,0.508 v -7.109 h 1.987 a 3.092,3.092 0 0 1 1.567,0.4 2.751,2.751 0 0 1 1.082,1.14 3.591,3.591 0 0 1 0.388,1.689 v 0.654 a 3.591,3.591 0 0 1 -0.386,1.689 2.745,2.745 0 0 1 -1.086,1.137 3.185,3.185 0 0 1 -1.609,0.4 z m 0.6,-6.6 v 6.092 h 1.348 a 2.32,2.32 0 0 0 1.8,-0.745 2.876,2.876 0 0 0 0.679,-2.014 v -0.625 a 2.809,2.809 0 0 0 -0.669,-1.963 2.281,2.281 0 0 0 -1.761,-0.745 z m 15.413,4.38 a 2.548,2.548 0 0 1 -0.806,1.72 2.657,2.657 0 0 1 -1.81,0.6 2.508,2.508 0 0 1 -1.4,-0.4 2.579,2.579 0 0 1 -0.94,-1.121 3.992,3.992 0 0 1 -0.337,-1.658 v -0.921 a 4.029,4.029 0 0 1 0.332,-1.68 2.554,2.554 0 0 1 0.955,-1.129 2.6,2.6 0 0 1 1.433,-0.4 2.539,2.539 0 0 1 1.8,0.618 2.587,2.587 0 0 1 0.769,1.707 h -0.602 a 1.81,1.81 0 0 0 -1.968,-1.812 1.865,1.865 0 0 0 -1.541,0.723 3.132,3.132 0 0 0 -0.574,2 v 0.869 a 3.155,3.155 0 0 0 0.559,1.963 1.8,1.8 0 0 0 1.514,0.731 2,2 0 0 0 1.421,-0.452 2.165,2.165 0 0 0 0.589,-1.355 z m 3.066,1.712 h 3.511 v 0.508 h -4.116 v -7.109 h 0.605 z m 9.594,-1.484 h -3.228 l -0.732,1.992 h -0.63 l 2.69,-7.109 h 0.571 l 2.691,7.109 h -0.628 z m -3.042,-0.508 h 2.852 l -1.426,-3.877 z m 10.476,0.752 a 1.151,1.151 0 0 0 -0.415,-0.935 4.383,4.383 0 0 0 -1.519,-0.654 5.322,5.322 0 0 1 -1.611,-0.676 1.6,1.6 0 0 1 -0.723,-1.357 1.59,1.59 0 0 1 0.668,-1.33 2.757,2.757 0 0 1 1.716,-0.51 2.847,2.847 0 0 1 1.267,0.273 2.073,2.073 0 0 1 0.867,0.762 2,2 0 0 1 0.308,1.089 h -0.605 a 1.487,1.487 0 0 0 -0.5,-1.169 1.942,1.942 0 0 0 -1.338,-0.442 2.11,2.11 0 0 0 -1.3,0.364 1.135,1.135 0 0 0 -0.483,0.95 1.074,1.074 0 0 0 0.435,0.884 4.031,4.031 0 0 0 1.392,0.6 6.529,6.529 0 0 1 1.45,0.542 2.067,2.067 0 0 1 0.742,0.671 1.68,1.68 0 0 1 0.249,0.923 1.607,1.607 0 0 1 -0.669,1.353 2.859,2.859 0 0 1 -1.77,0.51 3.47,3.47 0 0 1 -1.38,-0.271 2.107,2.107 0 0 1 -0.952,-0.752 1.941,1.941 0 0 1 -0.329,-1.108 h 0.6 a 1.419,1.419 0 0 0 0.567,1.186 2.377,2.377 0 0 0 1.494,0.435 2.215,2.215 0 0 0 1.333,-0.366 1.145,1.145 0 0 0 0.506,-0.972 z m 6.923,0 a 1.151,1.151 0 0 0 -0.415,-0.935 4.383,4.383 0 0 0 -1.519,-0.654 5.322,5.322 0 0 1 -1.611,-0.676 1.6,1.6 0 0 1 -0.723,-1.357 1.59,1.59 0 0 1 0.668,-1.33 2.757,2.757 0 0 1 1.716,-0.51 2.847,2.847 0 0 1 1.267,0.273 2.073,2.073 0 0 1 0.867,0.762 2,2 0 0 1 0.308,1.089 h -0.605 a 1.487,1.487 0 0 0 -0.5,-1.169 1.942,1.942 0 0 0 -1.338,-0.442 2.11,2.11 0 0 0 -1.3,0.364 1.135,1.135 0 0 0 -0.483,0.95 1.074,1.074 0 0 0 0.435,0.884 4.031,4.031 0 0 0 1.392,0.6 6.529,6.529 0 0 1 1.45,0.542 2.067,2.067 0 0 1 0.742,0.671 1.68,1.68 0 0 1 0.249,0.923 1.607,1.607 0 0 1 -0.669,1.353 2.859,2.859 0 0 1 -1.77,0.51 3.47,3.47 0 0 1 -1.384,-0.271 2.107,2.107 0 0 1 -0.952,-0.752 1.941,1.941 0 0 1 -0.325,-1.108 h 0.6 a 1.419,1.419 0 0 0 0.562,1.187 2.377,2.377 0 0 0 1.494,0.435 2.215,2.215 0 0 0 1.333,-0.366 1.145,1.145 0 0 0 0.508,-0.973 z m 10.257,-1.66 h -3.329 v 2.9 h 3.823 v 0.508 h -4.423 v -7.109 h 4.4 v 0.509 h -3.8 v 2.681 h 3.325 z m 6.786003,1.66 a 1.151,1.151 0 0 0 -0.415,-0.935 4.383,4.383 0 0 0 -1.519,-0.654 5.322,5.322 0 0 1 -1.611,-0.676 1.6,1.6 0 0 1 -0.723,-1.357 1.59,1.59 0 0 1 0.668,-1.33 2.757,2.757 0 0 1 1.716,-0.51 2.847,2.847 0 0 1 1.267,0.273 2.073,2.073 0 0 1 0.867,0.762 2,2 0 0 1 0.308,1.089 h -0.605 a 1.487,1.487 0 0 0 -0.5,-1.169 1.942,1.942 0 0 0 -1.338,-0.442 2.11,2.11 0 0 0 -1.3,0.364 1.135,1.135 0 0 0 -0.483,0.95 1.074,1.074 0 0 0 0.435,0.884 4.031,4.031 0 0 0 1.392,0.6 6.529,6.529 0 0 1 1.45,0.542 2.067,2.067 0 0 1 0.742,0.671 1.68,1.68 0 0 1 0.249,0.923 1.607,1.607 0 0 1 -0.666,1.353 2.859,2.859 0 0 1 -1.773,0.51 3.47,3.47 0 0 1 -1.379,-0.269 2.107,2.107 0 0 1 -0.948,-0.754 1.941,1.941 0 0 1 -0.325,-1.108 h 0.6 a 1.419,1.419 0 0 0 0.562,1.187 2.377,2.377 0 0 0 1.494,0.435 2.215,2.215 0 0 0 1.329,-0.367 1.145,1.145 0 0 0 0.503,-0.972 z m 7.934,-0.469 a 2.548,2.548 0 0 1 -0.8,1.719 2.657,2.657 0 0 1 -1.814,0.6 2.508,2.508 0 0 1 -1.4,-0.4 2.579,2.579 0 0 1 -0.94,-1.121 3.992,3.992 0 0 1 -0.346,-1.657 v -0.924 a 4.029,4.029 0 0 1 0.332,-1.68 2.554,2.554 0 0 1 0.955,-1.13 2.6,2.6 0 0 1 1.433,-0.4 2.539,2.539 0 0 1 1.8,0.618 2.587,2.587 0 0 1 0.78,1.709 h -0.605 a 1.81,1.81 0 0 0 -1.968,-1.812 1.865,1.865 0 0 0 -1.541,0.723 3.132,3.132 0 0 0 -0.574,2 v 0.869 a 3.155,3.155 0 0 0 0.559,1.963 1.8,1.8 0 0 0 1.511,0.732 2,2 0 0 0 1.418,-0.454 2.165,2.165 0 0 0 0.591,-1.355 z m 7.714,-0.952 a 4.108,4.108 0 0 1 -0.339,1.724 2.59,2.59 0 0 1 -0.975,1.145 2.654,2.654 0 0 1 -1.455,0.4 2.525,2.525 0 0 1 -2.012,-0.891 3.563,3.563 0 0 1 -0.767,-2.4 v -0.732 a 4.082,4.082 0 0 1 0.344,-1.721 2.629,2.629 0 0 1 0.976,-1.156 2.633,2.633 0 0 1 1.45,-0.4 2.657,2.657 0 0 1 1.448,0.4 2.6,2.6 0 0 1 0.969,1.118 4.024,4.024 0 0 1 0.356,1.675 z m -0.6,-0.771 a 3.142,3.142 0 0 0 -0.581,-2.012 1.927,1.927 0 0 0 -1.592,-0.728 1.924,1.924 0 0 0 -1.58,0.73 3.167,3.167 0 0 0 -0.588,2.039 v 0.742 a 3.142,3.142 0 0 0 0.586,2 1.922,1.922 0 0 0 1.592,0.74 1.907,1.907 0 0 0 1.592,-0.73 3.226,3.226 0 0 0 0.571,-2.034 z m 5.771,0.981 h -2.071 v 2.959 h -0.605 v -7.109 h 2.31 a 2.634,2.634 0 0 1 1.777,0.552 1.928,1.928 0 0 1 0.64,1.543 1.928,1.928 0 0 1 -0.4,1.206 2.047,2.047 0 0 1 -1.074,0.723 l 1.776,3.022 v 0.063 h -0.638 z m -2.065,-0.513 h 1.841 a 1.707,1.707 0 0 0 1.216,-0.43 1.456,1.456 0 0 0 0.459,-1.113 1.462,1.462 0 0 0 -0.479,-1.167 1.985,1.985 0 0 0 -1.348,-0.418 h -1.695 z m 11.18,-3.128 h -2.432 v 6.6 h -0.6 v -6.6 h -2.432 v -0.513 h 5.464 z"
       style="fill:#ffffff" />
    <path
       id="Line_45"
       data-name="Line 45"
       d="M 148,41.627783 H 0 v -1 h 148 z"
       fill="#ffffff" />
    <text
       xml:space="preserve"
       transform="translate(0,13.5)"
       id="text1"
       style="text-align:start;writing-mode:lr-tb;direction:ltr;white-space:pre;shape-inside:url(#rect1);display:inline;fill:#e9afc6;stroke:#782144;stroke-width:0.377953;stroke-linecap:round;stroke-linejoin:round" />
    <path
       id="path2"
       style="-inkscape-font-specification:'OCR A Extended, Normal';fill:#ffffff;stroke-width:2.26293;stroke-linecap:round;stroke-linejoin:round"
       d="M 12.293229,12.924127 A 0.47254464,0.38707936 0 0 0 11.81954,13.308143 V 34.88908 c 0,0.492928 0.224857,0.954061 0.639725,1.308057 a 0.47254464,0.38707936 0 0 0 0.01465,0.01208 c 0.432155,0.339835 0.995106,0.524024 1.596869,0.524024 0.601764,0 1.162432,-0.184164 1.58222,-0.528024 0.430645,-0.352843 0.669023,-0.819526 0.669023,-1.316141 V 20.312448 l 8.658255,16.188701 a 0.47254464,0.38707936 0 0 0 0.434622,0.232012 h 4.780842 a 0.47254464,0.38707936 0 0 0 0.473689,-0.388017 V 14.800208 c 0,-0.502478 -0.23639,-0.970241 -0.664141,-1.324057 -0.418048,-0.356707 -0.980839,-0.552024 -1.587103,-0.552024 -0.610764,0 -1.184414,0.202165 -1.62617,0.564024 -0.430647,0.35276 -0.664141,0.815444 -0.664141,1.312057 v 14.52463 L 17.445209,13.152137 a 0.47254464,0.38707936 0 0 0 -0.434622,-0.22801 z m 27.913476,0 c -0.606265,0 -1.17599,0.191265 -1.606636,0.544023 a 0.47254464,0.38707936 0 0 0 -0.005,0.008 c -0.41705,0.355855 -0.639723,0.822031 -0.639723,1.324058 0,0.483974 0.227027,0.939921 0.639723,1.292056 a 0.47254464,0.38707936 0 0 0 0.005,0.004 c 0.430646,0.352759 1.000371,0.548024 1.606636,0.548024 h 4.985942 v 16.404713 h -4.985942 c -0.606265,0 -1.17599,0.191271 -1.606636,0.544024 -0.41979,0.343864 -0.644609,0.803127 -0.644609,1.296055 0,0.492928 0.224851,0.954062 0.639723,1.308057 a 0.47254464,0.38707936 0 0 0 0.01475,0.01208 c 0.432154,0.339835 0.995106,0.524024 1.59687,0.524024 h 14.386475 c 0.590832,0 1.147451,-0.185966 1.577335,-0.524024 a 0.47254464,0.38707936 0 0 0 0.005,-0.0041 c 0.430649,-0.352759 0.669025,-0.819443 0.669025,-1.316057 0,-0.493475 -0.238779,-0.950272 -0.669025,-1.292055 -0.417247,-0.35244 -0.979776,-0.548024 -1.582218,-0.548024 H 49.690252 V 16.644288 h 4.902928 c 0.595465,0 1.153799,-0.197089 1.582218,-0.548024 a 0.47254464,0.38707936 0 0 0 0.0098,-0.004 c 0.426108,-0.363003 0.659258,-0.831444 0.659256,-1.328058 2e-6,-0.489737 -0.247705,-0.946876 -0.688557,-1.296056 -0.426193,-0.349111 -0.977819,-0.544024 -1.562686,-0.544024 z m 28.460413,0 c -1.227861,0 -2.327342,0.387008 -3.19374,1.120048 -0.865533,0.721652 -1.318514,1.618118 -1.318514,2.612114 0,0.858979 0.350061,1.667344 1.025512,2.384103 a 0.47254464,0.38707936 0 0 0 0.005,0.004 l 13.160745,13.812595 a 0.47254464,0.38707936 0 0 0 0.005,0.008 c 0.131741,0.132819 0.140592,0.185168 0.146493,0.176013 -0.02025,0.0043 -0.0038,0.008 -0.07326,0.008 h -8.848708 c -0.291178,0 -0.481695,-0.06392 -0.664142,-0.20401 -0.166945,-0.138287 -0.239278,-0.280165 -0.239278,-0.504023 0,-0.473356 -0.227577,-0.916483 -0.639724,-1.256054 -0.415777,-0.35477 -0.972105,-0.552023 -1.567569,-0.552023 -0.704851,0 -1.320717,0.166489 -1.738489,0.532024 -0.417772,0.365543 -0.595773,0.880541 -0.595773,1.484063 0,1.051436 0.532778,2.035416 1.528502,2.888125 a 0.47254464,0.38707936 0 0 0 0.005,0.0041 c 1.019441,0.847526 2.268982,1.292058 3.657662,1.292058 h 9.5861 c 1.077015,0 2.072834,-0.390102 2.900735,-1.104049 l 0.005,-0.0041 c 0.844716,-0.718966 1.294099,-1.596611 1.294099,-2.556112 0,-0.850661 -0.366763,-1.657676 -1.054813,-2.384102 a 0.47254464,0.38707936 0 0 0 0,-0.0041 L 68.872219,16.868298 a 0.47254464,0.38707936 0 0 0 -0.0098,-0.008 c -0.103062,-0.103912 -0.101437,-0.131434 -0.117189,-0.168007 0.03741,-0.0065 0.03125,-0.012 0.112314,-0.012 h 8.780341 c 0.269214,0 0.433859,0.05005 0.566472,0.140006 0.132616,0.08996 0.251055,0.236785 0.332072,0.488021 a 0.47254464,0.38707936 0 0 0 0.005,0.008 c 0.219351,0.634892 0.429478,1.084782 0.737392,1.400061 a 0.47254464,0.38707936 0 0 0 0.0098,0.008 c 0.360055,0.350237 0.935301,0.46802 1.611519,0.46802 0.560641,0 1.088554,-0.202718 1.508969,-0.544024 0.448476,-0.353234 0.698326,-0.826864 0.698326,-1.336058 0,-1.204267 -0.575311,-2.26767 -1.670121,-3.104135 -1.065785,-0.836043 -2.258574,-1.284061 -3.521051,-1.284061 z m 23.850492,0 c -0.606264,0 -1.17599,0.191265 -1.606638,0.544023 a 0.47254464,0.38707936 0 0 0 -0.005,0.008 c -0.412569,0.352128 -0.639606,0.804075 -0.639606,1.288049 v 20.124873 c 0,0.496615 0.238378,0.963298 0.669025,1.316057 a 0.47254464,0.38707936 0 0 0 0.005,0.0041 c 0.429886,0.33805 0.986505,0.524024 1.577338,0.524024 0.606262,0 1.171104,-0.195264 1.601753,-0.548023 0.438742,-0.348845 0.688556,-0.807582 0.688556,-1.296058 v -8.244358 h 9.849802 v 8.244358 c 0,0.492928 0.21998,0.954062 0.63485,1.308058 a 0.47254464,0.38707936 0 0 0 0.01,0.008 c 0.42211,0.345765 0.98888,0.528024 1.60175,0.528024 0.58487,0 1.13649,-0.19891 1.56269,-0.548024 0.43874,-0.348844 0.68856,-0.807581 0.68855,-1.296057 V 14.800208 c 1e-5,-0.503777 -0.23427,-0.97392 -0.66414,-1.328057 -0.41758,-0.354198 -0.98308,-0.548024 -1.5871,-0.548024 -0.60626,0 -1.1711,0.191265 -1.60175,0.544023 a 0.47254464,0.38707936 0 0 0 -0.01,0.008 c -0.41281,0.352128 -0.63496,0.804075 -0.63496,1.288049 v 8.196356 h -9.89376 v -8.196348 c 0,-0.487768 -0.235728,-0.945122 -0.664142,-1.296057 -0.428418,-0.350934 -0.986755,-0.544023 -1.582218,-0.544023 z m 33.55868,0 c -0.52896,0 -1.01311,0.109388 -1.40153,0.348015 -0.38842,0.238626 -0.66223,0.591288 -0.8253,1.012044 a 0.47254464,0.38707936 0 0 0 0,0.008 l -7.19812,19.916865 0.005,-0.0041 c -0.0831,0.217782 -0.12696,0.435702 -0.12696,0.652028 0,0.502027 0.2178,0.968203 0.63484,1.324056 0.42259,0.360583 1.00754,0.552026 1.63593,0.552026 0.45161,0 0.88819,-0.105149 1.26969,-0.304014 a 0.47254464,0.38707936 0 0 0 0.01,-0.0041 c 0.36671,-0.204811 0.65168,-0.456237 0.72762,-0.788035 l -0.01,0.04 1.46014,-3.952173 h 7.40322 l 1.33805,3.67616 c 0.1494,0.412532 0.42026,0.76382 0.81064,0.996043 0.39148,0.23287 0.88274,0.336016 1.42107,0.336016 0.55927,0 1.0887,-0.191763 1.4992,-0.528024 a 0.47254464,0.38707936 0 0 0 0.005,-0.008 c 0.41487,-0.353996 0.63973,-0.815129 0.63973,-1.308057 0,-0.181686 -0.039,-0.361797 -0.10744,-0.544024 l 0.005,0.0041 -7.09068,-20.228879 a 0.47254464,0.38707936 0 0 0 0,-0.004 c -0.13762,-0.372367 -0.40056,-0.689263 -0.77193,-0.895964 -0.37137,-0.206702 -0.82852,-0.296013 -1.33317,-0.296013 z M 12.766918,13.69616 h 3.936015 l 9.464016,17.624766 a 0.47254464,0.38707936 0 0 0 0.903428,-0.156003 V 14.800208 c 0,-0.312308 0.115941,-0.542991 0.390671,-0.768033 0.291837,-0.239055 0.58038,-0.336015 0.957145,-0.336015 0.381265,0 0.649196,0.09492 0.908311,0.316014 a 0.47254464,0.38707936 0 0 0 0.0049,0.004 c 0.272503,0.223218 0.390671,0.457609 0.390671,0.784034 v 21.16092 H 25.72256 L 16.282962,18.30436 A 0.47254464,0.38707936 0 0 0 15.37465,18.456367 V 34.88908 c 0,0.312309 -0.115941,0.542992 -0.390671,0.768034 -0.257375,0.210824 -0.527429,0.304014 -0.913195,0.304014 -0.379904,0 -0.658445,-0.09606 -0.927844,-0.304014 -0.259801,-0.222884 -0.376022,-0.453451 -0.376022,-0.768034 z m 27.439787,0 H 54.59318 c 0.346233,0 0.614475,0.09132 0.893661,0.320014 a 0.47254464,0.38707936 0 0 0 0.0098,0.004 c 0.289655,0.228141 0.405321,0.449784 0.405321,0.744032 0,0.310405 -0.119939,0.551559 -0.395555,0.788034 -0.27514,0.223706 -0.55168,0.316014 -0.913193,0.316014 H 49.22148 a 0.47254464,0.38707936 0 0 0 -0.473689,0.388017 v 17.176747 a 0.47254464,0.38707936 0 0 0 0.473689,0.388016 h 5.371734 c 0.381265,0 0.649197,0.09491 0.90831,0.316014 a 0.47254464,0.38707936 0 0 0 0.01475,0.01208 c 0.269912,0.212252 0.385788,0.427723 0.385788,0.740032 0,0.310347 -0.114763,0.540354 -0.385788,0.764033 -0.27549,0.216639 -0.554478,0.308015 -0.92296,0.308015 H 40.206792 c -0.383353,0 -0.665967,-0.09202 -0.937611,-0.304015 -0.258814,-0.222514 -0.371139,-0.454014 -0.371139,-0.768033 0,-0.315993 0.113763,-0.537205 0.371139,-0.748032 0.27473,-0.225044 0.556346,-0.320014 0.937611,-0.320014 h 5.459632 a 0.47254464,0.38707936 0 0 0 0.468805,-0.388016 V 16.256271 a 0.47254464,0.38707936 0 0 0 -0.468805,-0.388016 h -5.459632 c -0.381265,0 -0.662881,-0.09497 -0.937611,-0.320014 -0.258291,-0.223243 -0.371139,-0.449494 -0.371139,-0.748033 0,-0.330008 0.115913,-0.566087 0.376022,-0.788034 0.273067,-0.222003 0.553861,-0.316014 0.932728,-0.316014 z m 28.460413,0 h 9.249147 c 0.99473,0 1.928939,0.336464 2.86655,1.072047 a 0.47254464,0.38707936 0 0 0 0.005,0.004 c 0.933356,0.711452 1.372233,1.527491 1.372233,2.54011 0,0.32284 -0.120214,0.555466 -0.405321,0.780034 a 0.47254464,0.38707936 0 0 0 -0.005,0.004 c -0.283642,0.232341 -0.539392,0.320014 -0.849711,0.320014 -0.534274,0 -0.791267,-0.103434 -0.883893,-0.192008 -0.143617,-0.149441 -0.364098,-0.534312 -0.566475,-1.120049 v 0.008 C 79.33316,16.751074 79.128754,16.440547 78.809926,16.22427 78.491095,16.007993 78.074073,15.904256 77.637911,15.904256 H 68.85757 c -0.261488,0 -0.501527,0.02671 -0.727626,0.144005 -0.226102,0.117296 -0.380903,0.36039 -0.380903,0.572025 0,0.278437 0.161044,0.506382 0.380903,0.728032 l 13.180279,13.812601 c 0.579414,0.612971 0.849711,1.234595 0.849708,1.908082 0,0.772093 -0.326381,1.422435 -1.030395,2.020087 a 0.47254464,0.38707936 0 0 0 -0.005,0.0041 c -0.694708,0.600675 -1.405845,0.868039 -2.217061,0.868039 h -9.5861 c -1.148409,0 -2.109253,-0.338901 -2.978869,-1.060048 l -0.005,-0.0041 c -0.86278,-0.740591 -1.259915,-1.506076 -1.259915,-2.348101 0,-0.482745 0.133991,-0.778454 0.336955,-0.956042 0.202974,-0.17759 0.513316,-0.284012 1.04993,-0.284012 0.363848,0 0.627392,0.08899 0.888775,0.312014 a 0.47254464,0.38707936 0 0 0 0.005,0.008 c 0.262016,0.214628 0.371137,0.424512 0.371137,0.712031 0,0.398021 0.180171,0.779617 0.517639,1.056045 a 0.47254464,0.38707936 0 0 0 0.0098,0.008 c 0.352167,0.273291 0.822255,0.416018 1.318514,0.416018 h 8.848709 c 0.251703,0 0.502135,-0.03457 0.717858,-0.172019 0.215726,-0.137427 0.322304,-0.375749 0.322304,-0.580025 2e-6,-0.283275 -0.16712,-0.47651 -0.380903,-0.692029 l 0.0098,0.0041 -13.165478,-13.81266 h 0.005 c -0.56613,-0.600629 -0.835177,-1.222554 -0.835177,-1.912083 0,-0.808746 0.335418,-1.472354 1.04993,-2.06809 a 0.47254464,0.38707936 0 0 0 0.005,-0.004 c 0.712789,-0.604831 1.515965,-0.888045 2.514829,-0.888045 z m 23.850492,0 c 0.363848,0 0.636236,0.09315 0.913194,0.320014 0.276958,0.226867 0.390671,0.44999 0.390671,0.748033 v 8.580372 a 0.47254464,0.38707936 0 0 0 0.473689,0.388017 h 10.831366 a 0.47254464,0.38707936 0 0 0 0.47369,-0.388017 v -8.580372 c 0,-0.301837 0.11156,-0.526366 0.37602,-0.752033 0.27306,-0.221988 0.54899,-0.316014 0.92785,-0.316014 0.38126,0 0.64919,0.09492 0.90831,0.316014 a 0.47254464,0.38707936 0 0 0 0.01,0.004 c 0.27251,0.223218 0.39067,0.457609 0.39067,0.784034 v 20.088878 c 0,0.294247 -0.11566,0.515891 -0.40532,0.744032 a 0.47254464,0.38707936 0 0 0 -0.01,0.008 c -0.27919,0.228689 -0.54743,0.320013 -0.89366,0.320013 -0.40033,0 -0.67411,-0.09386 -0.92785,-0.300014 l -0.005,-0.0041 c -0.25881,-0.222515 -0.37114,-0.454014 -0.37114,-0.768033 v -8.632376 a 0.47254464,0.38707936 0 0 0 -0.47368,-0.384016 H 94.334114 a 0.47254464,0.38707936 0 0 0 -0.468806,0.384016 v 8.632376 c 0,0.294247 -0.115664,0.515891 -0.405321,0.744031 a 0.47254464,0.38707936 0 0 0 -0.0098,0.008 c -0.27473,0.225042 -0.551463,0.320014 -0.932726,0.320014 -0.366128,0 -0.644319,-0.09034 -0.918079,-0.304014 l -0.005,-0.0041 C 91.32358,35.429457 91.208812,35.19945 91.208812,34.889103 V 14.764207 c 0,-0.301837 0.111538,-0.526366 0.376022,-0.752033 0.273067,-0.222003 0.553858,-0.316014 0.932728,-0.316014 z m 33.55868,0 c 0.37001,0 0.62693,0.06447 0.80576,0.164007 0.17712,0.09858 0.30231,0.240166 0.39067,0.476021 l 7.09069,20.228878 a 0.47254464,0.38707936 0 0 0 0,0.008 c 0.0444,0.118236 0.0684,0.220354 0.0684,0.316014 0,0.315995 -0.11862,0.548226 -0.38091,0.772033 -0.26302,0.212633 -0.50879,0.300015 -0.82041,0.300015 -0.39276,0 -0.66332,-0.07242 -0.86436,-0.192009 -0.20105,-0.119588 -0.35425,-0.297147 -0.45904,-0.588027 a 0.47254464,0.38707936 0 0 0 0,-0.0041 L 130.4665,31.22493 a 0.47254464,0.38707936 0 0 0 -0.45416,-0.276013 h -8.10154 a 0.47254464,0.38707936 0 0 0 -0.45416,0.276013 l -1.56757,4.228183 a 0.47254464,0.38707936 0 0 0 -0.01,0.04399 c -0.008,0.03717 -0.0865,0.142609 -0.32719,0.280013 -0.23645,0.121677 -0.47338,0.184 -0.75204,0.184 -0.41556,0 -0.69769,-0.0988 -0.95226,-0.316014 -0.26012,-0.221947 -0.37602,-0.458026 -0.37602,-0.788035 0,-0.13034 0.025,-0.27199 0.083,-0.424017 a 0.47254464,0.38707936 0 0 0 0.005,-0.0041 l 7.19323,-19.908865 c 0.11909,-0.307274 0.28424,-0.502638 0.48834,-0.628027 0.2041,-0.12539 0.46114,-0.196008 0.83506,-0.196008 z m -0.0391,5.968259 a 0.47254464,0.38707936 0 0 0 -0.45414,0.276012 l -3.04724,8.340363 a 0.47254464,0.38707936 0 0 0 0.45416,0.496021 h 5.98704 a 0.47254464,0.38707936 0 0 0 0.45415,-0.492021 l -2.9398,-8.340362 a 0.47254464,0.38707936 0 0 0 -0.45416,-0.280013 z m -0.01,1.756077 2.31961,6.584286 h -4.72712 z M 30.195705,14.800531 v 21.546225 h -4.78246 l -9.564921,-17.88874 v 16.43268 q 0,0.606693 -0.529033,1.040044 -0.507872,0.416016 -1.248519,0.416016 -0.740646,0 -1.269679,-0.416016 -0.507872,-0.433351 -0.507872,-1.040044 V 13.309802 h 4.718976 l 9.586082,17.854073 V 14.800531 q 0,-0.606692 0.529033,-1.040044 0.550195,-0.450685 1.290841,-0.450685 0.740647,0 1.248519,0.433351 0.529033,0.433352 0.529033,1.057378 z m 10.009307,-1.490729 h 14.389703 q 0.698325,0 1.227358,0.433351 0.550193,0.433352 0.550193,1.02271 0,0.606691 -0.529033,1.057377 -0.529033,0.433351 -1.248518,0.433351 h -5.374977 v 17.178045 h 5.374977 q 0.740648,0 1.248518,0.433351 0.529033,0.416018 0.529033,1.022709 0,0.606693 -0.529033,1.040044 -0.529033,0.416016 -1.248518,0.416016 H 40.205012 q -0.740646,0 -1.269678,-0.416016 -0.507873,-0.433351 -0.507873,-1.040044 0,-0.606691 0.507873,-1.022709 0.529032,-0.433351 1.269678,-0.433351 h 5.459624 V 16.256591 h -5.459624 q -0.740646,0 -1.269678,-0.433351 -0.507873,-0.433352 -0.507873,-1.022709 0,-0.624026 0.507873,-1.057378 0.529032,-0.433351 1.269678,-0.433351 z m 28.461986,0 h 9.247501 q 1.692907,0 3.19536,1.178716 1.523616,1.161381 1.523616,2.82545 0,0.624026 -0.550195,1.057377 -0.529033,0.433352 -1.185034,0.433352 -0.909938,0 -1.248518,-0.329347 -0.338583,-0.346681 -0.656,-1.265386 -0.296261,-0.918705 -1.354326,-0.918705 H 68.85745 q -0.63484,0 -0.63484,0.329347 0,0.208009 0.275097,0.485354 l 13.183508,13.815239 q 0.95226,1.005376 0.95226,2.149422 0,1.300055 -1.163873,2.288096 -1.142711,0.988039 -2.560522,0.988039 h -9.586079 q -1.904522,0 -3.32233,-1.178714 -1.396649,-1.196049 -1.396649,-2.617443 0,-1.6294 1.862199,-1.6294 0.719486,0 1.227356,0.433351 0.507873,0.416018 0.507873,0.988041 0,0.468019 0.380903,0.780033 0.402065,0.312012 0.994583,0.312012 h 8.845434 q 0.571358,0 0.571358,-0.364015 0,-0.17335 -0.275098,-0.450684 L 65.556283,18.804697 q -0.931098,-0.988041 -0.931098,-2.149423 0,-1.352056 1.185033,-2.340097 1.185036,-1.005375 2.85678,-1.005375 z M 90.738266,34.890696 V 14.765863 q 0,-0.589358 0.50787,-1.02271 0.529033,-0.433351 1.269681,-0.433351 0.719486,0 1.248519,0.433351 0.529033,0.433352 0.529033,1.02271 v 8.580355 h 10.834601 v -8.580355 q 0,-0.589358 0.50787,-1.02271 0.52904,-0.433351 1.26968,-0.433351 0.74065,0 1.24852,0.433351 0.52904,0.433352 0.52904,1.057378 v 20.090165 q 0,0.589358 -0.5502,1.022709 -0.52903,0.433351 -1.22736,0.433351 -0.7618,0 -1.26968,-0.416016 -0.50787,-0.433351 -0.50787,-1.040044 V 26.258339 H 94.335691 v 8.632357 q 0,0.589358 -0.550195,1.022709 -0.529033,0.433351 -1.269679,0.433351 -0.719485,0 -1.248518,-0.416016 -0.529033,-0.433351 -0.529033,-1.040044 z m 26.367014,-0.572023 7.19485,-19.916826 q 0.42323,-1.092045 1.77756,-1.092045 1.312,0 1.65058,0.918705 l 7.08904,20.228838 q 0.0847,0.225343 0.0847,0.433351 0,0.606693 -0.50787,1.040044 -0.50787,0.416016 -1.16387,0.416016 -1.39665,0 -1.77756,-1.057377 l -1.43897,-3.952162 h -8.10478 l -1.56594,4.229508 q -0.0635,0.277344 -0.52904,0.537355 -0.46554,0.242676 -1.01574,0.242676 -0.78297,0 -1.29084,-0.433351 -0.50787,-0.433351 -0.50787,-1.057377 0,-0.260011 0.10581,-0.537355 z m 8.93008,-14.265925 -3.04723,8.337679 h 5.98866 z" />
    <text
       xml:space="preserve"
       style="font-size:27.4734px;font-family:'OCR A Extended';-inkscape-font-specification:'OCR A Extended, Normal';text-align:start;writing-mode:lr-tb;direction:ltr;text-anchor:start;fill:#ffffff;stroke:#000000;stroke-width:0.377953;stroke-linecap:round;stroke-linejoin:round"
       x="76.119591"
       y="18.228886"
       id="text3"><tspan
         sodipodi:role="line"
         id="tspan2"></tspan></text>
  </g>
</svg>
