<svg xmlns="http://www.w3.org/2000/svg" width="32.979" height="19.788" viewBox="0 0 32.979 19.788">
  <g id="Group_428" data-name="Group 428" transform="translate(-2 -7)">
    <g id="Path_170" data-name="Path 170" transform="translate(0 0)" fill="none">
      <path d="M2,15.245a8.245,8.245,0,0,0,8.245,8.245,13.192,13.192,0,0,1,8.245,3.3,13.192,13.192,0,0,1,8.245-3.3,8.245,8.245,0,0,0,8.245-8.245V7H26.734a13.192,13.192,0,0,0-8.245,3.3A13.192,13.192,0,0,0,10.245,7H2Z" stroke="none"/>
      <path d="M 3.500003814697266 8.499998092651367 L 3.500003814697266 15.24482917785645 C 3.500003814697266 18.96393966674805 6.525722503662109 21.98965835571289 10.24483299255371 21.98965835571289 L 10.30067253112793 21.99069976806641 C 13.25790977478027 22.10086250305176 16.1211109161377 23.1108283996582 18.48966217041016 24.86044311523438 C 20.85821914672852 23.11082077026367 23.7214241027832 22.10085296630859 26.67866134643555 21.99069976806641 L 26.73449325561523 21.98965835571289 C 30.4536018371582 21.98965835571289 33.47932052612305 18.96393966674805 33.47932052612305 15.24482917785645 L 33.47932052612305 8.499998092651367 L 26.76327133178711 8.499998092651367 C 24.08002090454102 8.606245040893555 21.49547386169434 9.643308639526367 19.48299217224121 11.42188835144043 L 18.48966217041016 12.29977798461914 L 17.49632263183594 11.42188835144043 C 15.48386001586914 9.643308639526367 12.89931297302246 8.606245040893555 10.2160530090332 8.499998092651367 L 3.500003814697266 8.499998092651367 M 2.000003814697266 6.999998092651367 L 10.24483299255371 6.999998092651367 C 13.29164123535156 7.113489151000977 16.20508193969727 8.278858184814453 18.48966217041016 10.29792976379395 C 20.77424240112305 8.27886962890625 23.68768310546875 7.113489151000977 26.73449325561523 6.999998092651367 L 34.97932052612305 6.999998092651367 L 34.97932052612305 15.24482917785645 C 34.97932052612305 19.7983283996582 31.28798294067383 23.48965835571289 26.73449325561523 23.48965835571289 C 23.68768310546875 23.6031494140625 20.77424240112305 24.76852798461914 18.48966217041016 26.78759765625 C 16.20508193969727 24.76852798461914 13.29164123535156 23.60315895080566 10.24483299255371 23.48965835571289 C 5.69133186340332 23.48965835571289 2.000003814697266 19.7983283996582 2.000003814697266 15.24482917785645 L 2.000003814697266 6.999998092651367 Z" stroke="none" fill="#f8b54f"/>
    </g>
    <g id="Path_171" data-name="Path 171" transform="translate(3.054 3.115)" fill="none">
      <path d="M6,11c1.5,0,3,.5,3,2C7,13,6,13,6,11Z" stroke="none"/>
      <path d="M 6 11 C 7.5 11 9 11.5 9 13 C 7 13 6 13 6 11 Z" stroke="none" fill="#f8b54f"/>
    </g>
    <g id="Path_172" data-name="Path 172" transform="translate(9.925 3.115)" fill="none">
      <path d="M18,11c-1.5,0-3,.5-3,2C17,13,18,13,18,11Z" stroke="none"/>
      <path d="M 18 11 C 18 13 17 13 15 13 C 15 11.5 16.5 11 18 11 Z" stroke="none" fill="#f8b54f"/>
    </g>
  </g>
</svg>
