<svg xmlns="http://www.w3.org/2000/svg" width="38.5" height="38.5" viewBox="0 0 38.5 38.5">
  <g id="Group_1506" data-name="Group 1506" transform="translate(5.75 6.75)">
    <path id="Path_226" data-name="Path 226" d="M15,27.779V19.26A4.26,4.26,0,0,1,19.26,15h8.519" transform="translate(3.732 2.732)" fill="none" stroke="#f8b54f" stroke-width="1.5"/>
    <path id="Path_227" data-name="Path 227" d="M7,4V7.781a5.672,5.672,0,0,0,5.672,3.781h0a3.781,3.781,0,0,1,3.781,3.781,3.781,3.781,0,1,0,7.563,0A3.781,3.781,0,0,1,27.8,11.563H33.47" transform="translate(-3.785 -6.871)" fill="none" stroke="#f8b54f" stroke-width="1.5"/>
    <path id="Path_228" data-name="Path 228" d="M3,11H7.107a4.107,4.107,0,0,1,4.107,4.107v2.054a4.107,4.107,0,0,0,4.107,4.107,4.107,4.107,0,0,1,4.107,4.107v8.215" transform="translate(-8 -3.08)" fill="none" stroke="#f8b54f" stroke-width="1.5"/>
    <circle id="Ellipse_15" data-name="Ellipse 15" cx="18.5" cy="18.5" r="18.5" transform="translate(-5 -6)" fill="none" stroke="#f8b54f" stroke-width="1.5"/>
  </g>
</svg>
